HIERARCHY
ROOT RootJoint
{
    OFFSET   0.000000   0.000000   0.000000
    CHANNELS 6 Xposition Yposition Zposition Xrotation Yrotation Zrotation
    JOINT pelvis_lowerback
    {
        OFFSET   0.000000   0.093605   0.000000
        CHANNELS 3 Xrotation Yrotation Zrotation
        JOINT lowerback_torso
        {
            OFFSET   0.000000   0.100000   0.000000
            CHANNELS 3 Xrotation Yrotation Zrotation
            JOINT torso_head
            {
                OFFSET   0.000000   0.282350   0.000000
                CHANNELS 3 Xrotation Yrotation Zrotation
                End Site
                {
                    OFFSET   0.000000   0.192650   0.000000
                }
            }
            JOINT rTorso_Clavicle
            {
                OFFSET  -0.001000   0.157500   0.000000
                CHANNELS 3 Xrotation Yrotation Zrotation
                JOINT rShoulder
                {
                    OFFSET  -0.117647   0.000000   0.000000
                    CHANNELS 3 Xrotation Yrotation Zrotation
                    JOINT rElbow
                    {
                        OFFSET  -0.245000   0.000000   0.000000
                        CHANNELS 3 Xrotation Yrotation Zrotation
                        JOINT rWrist
                        {
                            OFFSET  -0.240000   0.000000   0.000000
                            CHANNELS 3 Xrotation Yrotation Zrotation
                            End Site
                            {
                                OFFSET  -0.116353  -0.002500   0.000000
                            }
                        }
                    }
                }
            }
            JOINT lTorso_Clavicle
            {
                OFFSET   0.001000   0.157500   0.000000
                CHANNELS 3 Xrotation Yrotation Zrotation
                JOINT lShoulder
                {
                    OFFSET   0.117647   0.000000   0.000000
                    CHANNELS 3 Xrotation Yrotation Zrotation
                    JOINT lElbow
                    {
                        OFFSET   0.245000   0.000000   0.000000
                        CHANNELS 3 Xrotation Yrotation Zrotation
                        JOINT lWrist
                        {
                            OFFSET   0.240000   0.000000   0.000000
                            CHANNELS 3 Xrotation Yrotation Zrotation
                            End Site
                            {
                                OFFSET   0.116353  -0.002500   0.000000
                            }
                        }
                    }
                }
            }
        }
    }
    JOINT rHip
    {
        OFFSET  -0.100000  -0.051395   0.000000
        CHANNELS 3 Xrotation Yrotation Zrotation
        JOINT rKnee
        {
            OFFSET   0.000000  -0.410000   0.000000
            CHANNELS 3 Xrotation Yrotation Zrotation
            JOINT rAnkle
            {
                OFFSET   0.000000  -0.390000   0.000000
                CHANNELS 3 Xrotation Yrotation Zrotation
                JOINT rToeJoint
                {
                    OFFSET   0.000000  -0.050000   0.130000
                    CHANNELS 3 Xrotation Yrotation Zrotation
                    End Site
                    {
                        OFFSET  -0.010000   0.002000   0.060000
                    }
                }
            }
        }
    }
    JOINT lHip
    {
        OFFSET   0.100000  -0.051395   0.000000
        CHANNELS 3 Xrotation Yrotation Zrotation
        JOINT lKnee
        {
            OFFSET   0.000000  -0.410000   0.000000
            CHANNELS 3 Xrotation Yrotation Zrotation
            JOINT lAnkle
            {
                OFFSET   0.000000  -0.390000   0.000000
                CHANNELS 3 Xrotation Yrotation Zrotation
                JOINT lToeJoint
                {
                    OFFSET   0.000000  -0.050000   0.130000
                    CHANNELS 3 Xrotation Yrotation Zrotation
                    End Site
                    {
                        OFFSET   0.010000   0.002000   0.060000
                    }
                }
            }
        }
    }
}
MOTION
Frames: 10
Frame Time:   0.008333
 -2.236405   0.885920   5.242839  -5.185262  19.972098   1.009101   9.571443  -8.210453  -1.908626   1.845752  -7.044161   0.183199  -1.935708   0.538802   0.774209   7.600324 -12.104929   8.097499  13.561595 -10.492208  50.292843   0.000373   2.241139  -0.007421  -1.101895  -0.568077  -1.789963  -0.703489  -3.230524  -5.843307 -15.339274 -13.068496 -45.284589  -0.005971 -49.832866  -0.002743   0.917921  -5.503079   8.462966 -21.098643  -9.521992  -3.532316  10.723077  -0.007773   0.002641  -3.013329 -13.059086   5.738081  -0.826060  -0.000712   0.001930  25.321490  -6.054370   7.020605  15.220012  -0.006825  -0.000095   0.369891  -6.770201  -1.277130 -45.198460  -0.007679  -0.004061
 -2.236479   0.886562   5.258380  -5.129463  19.830943   1.040893   9.508438  -8.341523  -1.838666   1.770262  -7.022253   0.207756  -2.040321   0.554468   0.659260   7.646059 -12.291736   8.058499  13.136671 -10.721947  50.084018   0.000221   2.161668  -0.006416  -1.155540  -0.773305  -2.004546  -0.621843  -3.016630  -5.834606 -15.032927 -12.633421 -45.489950  -0.004707 -49.901975  -0.002186   0.959502  -5.706191   8.609722 -20.380234  -9.181464  -2.777535  11.445820  -0.009793   0.004381  -2.720147 -12.872502   5.112623  -0.876738  -0.000773   0.001394  25.040880  -5.957710   7.092631  17.012050  -0.008423   0.001245   2.284838  -6.778566  -1.195985 -45.158806  -0.006122  -0.003222
 -2.236501   0.887491   5.274458  -5.129214  19.579187   1.051550   9.424022  -8.431587  -1.713838   1.710464  -6.956158   0.241423  -2.140941   0.564156   0.551274   7.655942 -12.444757   7.999932  12.708933 -10.911559  49.878683   0.000088   2.106927  -0.005454  -1.209005  -0.878551  -2.214664  -0.459527  -2.769065  -5.868561 -14.671465 -12.179682 -45.715816  -0.003728 -49.924624  -0.001729   0.964884  -5.678466   8.667755 -19.501131  -8.859708  -1.910525  12.218067  -0.011946   0.005281  -2.440686 -12.699708   4.528634  -0.913496  -0.000749   0.001039  24.664358  -5.845887   7.140030  19.045264  -0.010454   0.001267   4.604196  -6.759155  -1.147917 -45.127085  -0.004859  -0.002555
 -2.236489   0.887692   5.290502  -5.090678  19.380997   0.939098   9.334022  -8.522054  -1.450564   1.642330  -6.884376   0.335332  -2.243571   0.570480   0.458469   7.654432 -12.571526   7.882794  12.298480 -11.079277  49.667053   0.000007   2.064682  -0.004575  -1.260484  -0.915153  -2.392574  -0.292253  -2.538730  -5.889757 -14.321394 -11.760644 -45.949855  -0.002955 -49.946905  -0.001356   0.958768  -5.586978   8.653264 -18.617646  -8.565497  -0.957599  13.003779  -0.013652   0.006413  -2.176625 -12.540758   3.984442  -0.953957  -0.000730   0.000727  24.209314  -5.752383   7.317854  21.158309  -0.012461   0.001418   7.712799  -6.727619  -1.157054 -41.254851   0.001086   0.010066
 -2.236380   0.887509   5.306697  -5.051872  19.134600   0.876223   9.223394  -8.573403  -1.228468   1.569943  -6.788965   0.431699  -2.339227   0.576942   0.379580   7.645196 -12.681233   7.778809  11.906842 -11.227741  49.460177  -0.000057   2.028710  -0.003822  -1.307987  -0.925184  -2.585424  -0.122075  -2.306314  -5.916192 -13.979914 -11.357980 -46.163772  -0.002356 -49.959940  -0.001071   0.949249  -5.464820   8.622269 -17.712050  -8.273940  -0.060405  13.766135  -0.014849   0.006773  -1.928004 -12.392729   3.476479  -0.987101  -0.000681   0.000513  23.772108  -5.668345   7.416477  23.143682  -0.013735   0.001034  10.313442  -6.702692  -1.147457 -42.355392  -0.000500   0.005621
 -2.236552   0.888722   5.321927  -5.045136  18.665502   0.407531   9.347731  -8.509629  -0.679765   1.547079  -6.601576   0.673797  -2.439921   0.586973   0.319601   7.523155 -12.661761   7.742151  11.447172 -11.286391  49.260629  -0.000050   2.027292  -0.003062  -1.350634  -0.833728  -2.787634   0.027880  -2.124512  -6.030929 -13.667896 -10.979657 -46.384167  -0.001903 -49.953809  -0.000874   0.928798  -5.277543   8.667744 -17.225255  -7.868403   0.901355  14.666972  -0.013989   0.006947  -1.350542 -12.188400   2.981421  -0.917305  -0.000173   0.000573  23.372393  -5.567363   7.806317  25.069210  -0.016991  -0.004426  12.912764  -6.621820  -1.147116 -41.288570   0.000671   0.004146
 -2.236724   0.889942   5.337216  -5.064070  18.207054   0.033780   9.409904  -8.471063  -0.273330   1.561729  -6.428218   0.904938  -2.505456   0.594026   0.272319   7.412654 -12.660813   7.701472  11.024254 -11.342649  49.106395  -0.000030   2.031350  -0.002435  -1.382962  -0.681348  -2.908357   0.188961  -1.929732  -6.088556 -13.358127 -10.624712 -46.588815  -0.001523 -49.953196  -0.000699   0.908457  -5.090139   8.632984 -16.663727  -7.614374   1.737248  15.495660  -0.013153   0.005646  -0.999044 -12.064435   2.571310  -0.935661  -0.000217   0.000452  23.010626  -5.506453   8.111181  26.849914  -0.019207  -0.008158  15.441316  -6.567388  -1.156699 -38.624513   0.002830   0.001964
 -2.236932   0.891498   5.352327  -5.251862  17.781287  -0.283314   9.529345  -8.436377   0.046838   1.683499  -6.408234   1.155184  -2.590816   0.621875   0.344802   7.289656 -12.556118   7.664395  10.495557 -11.280454  48.985335   0.001062   2.394371  -0.000539  -1.425365  -0.931854  -3.031758   0.283969  -1.816566  -6.022964 -12.782777 -10.226550 -46.904293  -0.005974 -49.237068  -0.005391   0.928526  -5.377034   8.720825 -15.654097  -7.420358   2.592640  15.795800  -0.011287   0.004401  -0.689969 -11.815022   2.025525  -0.956514  -0.000272   0.000336  22.160694  -5.339735   8.349010  30.391010  -0.023191  -0.009062  15.519216  -6.128153  -1.198902 -35.192478  -0.003998   0.013040
 -2.237049   0.893060   5.367530  -5.498711  17.235254  -0.539339   9.598704  -8.346755   0.285391   1.811603  -6.345520   1.352379  -2.667872   0.644230   0.421799   7.131212 -12.428348   7.620520   9.962932 -11.186659  48.870832   0.001946   2.762665   0.001180  -1.458412  -1.033255  -3.123723   0.458115  -1.678370  -6.000186 -12.165983  -9.812103 -47.223142  -0.009717 -48.508487  -0.008809   0.905667  -5.341610   8.655505 -14.510293  -7.203231   3.403834  15.964378  -0.009469   0.003248  -0.473600 -11.576187   1.494398  -0.986075  -0.000344   0.000265  21.288611  -5.158293   8.457245  34.135291  -0.026920  -0.011799  15.585999  -5.715201  -1.240915 -32.165761  -0.006950   0.018922
 -2.237126   0.894489   5.382832  -5.756525  16.629628  -0.757465   9.606481  -8.224825   0.464012   1.910237  -6.245249   1.502315  -2.743913   0.663551   0.493641   6.966097 -12.296066   7.575482   9.450843 -11.084764  48.763415   0.002570   3.116665   0.002598  -1.486618  -1.053849  -3.197063   0.671663  -1.515303  -6.010350 -11.544662  -9.400784 -47.542084  -0.012054 -47.808444  -0.010493   0.862679  -5.163712   8.509991 -13.328182  -6.984541   4.158414  16.091318  -0.007907   0.002285  -0.303383 -11.354216   0.991261  -1.020985  -0.000411   0.000236  20.453027  -4.981550   8.500052  37.747395  -0.030400  -0.014823  15.652921  -5.331250  -1.280091 -29.400228  -0.008883   0.021181
